<svg width="580" height="181" viewBox="0 0 580 181" fill="none" xmlns="http://www.w3.org/2000/svg">
<g clip-path="url(#clip0_2_51)">
<path d="M36.027 13L105 71.303M105 71.303H17L59.7778 107.623M105 71.303L59.7778 107.623M59.7778 107.623L31.2703 161" stroke="#C5E6FF" stroke-width="3"/>
<path d="M111 13V159" stroke="#57A8FF" stroke-width="3"/>
<path d="M575.695 3.50625V167.105H539.935V3.50625H575.695Z" fill="#C5E6FF" stroke="#171E26" stroke-width="4"/>
<path d="M460.501 1.7403C473.093 1.7403 484.33 3.68421 494.174 7.62019H494.175C504.017 11.5242 512.428 16.6499 519.375 23.0157L520.726 24.254L519.611 25.7081L509.023 39.504C508.239 40.5901 507.24 41.5135 506.056 42.2823L506.055 42.2813C504.657 43.2401 502.882 43.5977 500.967 43.5977C499.45 43.5977 497.945 43.2167 496.471 42.5255L496.428 42.5059L496.386 42.4835C495.097 41.803 493.695 41.0144 492.183 40.1182L492.153 40.0997L492.123 40.0801C491.035 39.3819 489.812 38.6391 488.452 37.8516L487.046 37.0499C485.213 36.0175 483.054 35.0713 480.558 34.2198L480.535 34.211L480.511 34.2032C478.065 33.299 475.17 32.5537 471.81 31.9805L471.786 31.9766L471.761 31.9717C468.547 31.3406 464.76 31.0157 460.383 31.0157C453.006 31.0157 446.284 32.264 440.196 34.7325L440.185 34.7364C434.18 37.1311 429.015 40.6445 424.67 45.2833L424.66 45.294C420.326 49.8514 416.934 55.4899 414.506 62.251L414.504 62.2579C412.089 68.9154 410.86 76.5876 410.86 85.3057C410.86 94.0786 412.162 101.808 414.721 108.525L415.23 109.782C417.829 116.004 421.209 121.241 425.354 125.525L425.772 125.951C430.112 130.325 435.192 133.707 441.027 136.103H441.026C447.043 138.5 453.529 139.706 460.501 139.706C464.748 139.706 468.544 139.488 471.893 139.06L471.898 139.059L473.166 138.887C476.086 138.459 478.751 137.843 481.167 137.047L481.173 137.045L481.181 137.042C483.68 136.24 486.026 135.252 488.223 134.079L489.156 133.565C491.703 132.088 494.227 130.287 496.728 128.153L496.736 128.148L497.085 127.862C497.9 127.22 498.768 126.694 499.69 126.299C500.796 125.752 501.973 125.468 503.202 125.468C505.326 125.468 507.226 126.208 508.839 127.599L509.158 127.886L509.188 127.913L509.216 127.942L521.685 140.636L522.974 141.947L521.775 143.342C514.666 151.604 505.902 157.926 495.514 162.309L495.515 162.31C485.169 166.709 472.811 168.871 458.502 168.871C445.661 168.871 434.031 166.813 423.644 162.657L423.639 162.655C413.687 158.643 405.097 153.097 397.896 146.011L397.204 145.32C389.862 137.902 384.226 129.053 380.29 118.803L380.285 118.79C376.427 108.535 374.51 97.3668 374.51 85.3057C374.51 73.082 376.589 61.8564 380.777 51.6553C384.953 41.4088 390.827 32.5679 398.403 25.1573L398.411 25.1505L399.132 24.461C406.393 17.6135 414.917 12.2388 424.685 8.33112L425.666 7.94538C436.197 3.7984 447.817 1.74034 460.501 1.7403Z" fill="#C5E6FF" stroke="#171E26" stroke-width="4"/>
<path d="M308.633 1.7403C321.226 1.7403 332.462 3.68421 342.307 7.62019H342.308C352.15 11.5242 360.561 16.6499 367.507 23.0157L368.859 24.254L367.744 25.7081L357.156 39.504C356.372 40.5901 355.373 41.5135 354.189 42.2823L354.188 42.2813C352.789 43.2401 351.015 43.5977 349.1 43.5977C347.583 43.5977 346.078 43.2167 344.604 42.5255L344.561 42.5059L344.519 42.4835C343.23 41.803 341.828 41.0144 340.316 40.1182L340.286 40.0997L340.255 40.0801C339.168 39.3819 337.945 38.639 336.585 37.8516L335.179 37.0499C333.346 36.0175 331.187 35.0713 328.691 34.2198L328.668 34.211L328.644 34.2032C326.198 33.299 323.303 32.5537 319.943 31.9805L319.919 31.9766L319.894 31.9717C316.68 31.3406 312.893 31.0157 308.516 31.0157C301.139 31.0157 294.417 32.264 288.329 34.7325L288.318 34.7364C282.313 37.1311 277.148 40.6445 272.803 45.2833L272.793 45.294C268.459 49.8514 265.067 55.4899 262.639 62.251L262.637 62.2579C260.222 68.9154 258.993 76.5876 258.993 85.3057C258.993 94.0786 260.295 101.808 262.854 108.525L263.363 109.782C265.962 116.004 269.342 121.241 273.487 125.525L273.905 125.951C278.245 130.325 283.325 133.707 289.16 136.103H289.159C295.176 138.5 301.662 139.706 308.633 139.706C312.881 139.706 316.677 139.488 320.026 139.06L320.031 139.059L321.298 138.887C324.219 138.459 326.884 137.843 329.299 137.047L329.306 137.045L329.314 137.042C331.813 136.24 334.159 135.252 336.356 134.079L337.289 133.565C339.836 132.088 342.36 130.286 344.861 128.153L344.869 128.148L345.217 127.862C346.033 127.22 346.901 126.694 347.823 126.299C348.929 125.752 350.106 125.468 351.335 125.468C353.459 125.468 355.359 126.208 356.972 127.599L357.291 127.886L357.321 127.913L357.349 127.942L369.818 140.636L371.107 141.947L369.908 143.342C362.799 151.604 354.035 157.926 343.647 162.309L343.648 162.31C333.301 166.709 320.944 168.871 306.634 168.871C293.794 168.871 282.164 166.813 271.777 162.657L271.772 162.655C261.819 158.643 253.23 153.097 246.029 146.011L245.337 145.32C237.995 137.902 232.359 129.053 228.422 118.803L228.418 118.79C224.56 108.535 222.643 97.3668 222.643 85.3057C222.643 73.082 224.722 61.8564 228.91 51.6553C233.086 41.4088 238.96 32.5679 246.536 25.1573L246.544 25.1505L247.265 24.461C254.526 17.6135 263.05 12.2388 272.818 8.33112L273.798 7.94538C284.33 3.7984 295.95 1.74034 308.633 1.7403Z" fill="#C5E6FF" stroke="#171E26" stroke-width="4"/>
<path d="M198.645 3.50625V167.105H180.412C177.718 167.105 175.316 166.712 173.274 165.841L173.225 165.82L173.177 165.796C171.234 164.842 169.431 163.331 167.749 161.367L83.1185 69.9271C80.3262 67.2735 78.1854 62.9912 77.7787 58.476C77.3618 53.8477 78.7664 48.8452 83.2807 45.1391L83.6986 44.8041C91.9394 38.3911 100.761 41.7897 106.362 44.3646L107.455 44.8734L107.825 45.0473L108.096 45.351L167.119 111.331L167.004 109.602C166.845 107.066 166.765 104.706 166.765 102.524V3.50625H198.645Z" fill="#C5E6FF" stroke="#171E26" stroke-width="4"/>
<ellipse cx="111" cy="160.5" rx="13" ry="13.5" fill="#57A8FF"/>
<ellipse cx="36" cy="160.5" rx="14" ry="13.5" fill="#C5E6FF"/>
<ellipse cx="13.5" cy="72" rx="13.5" ry="13" fill="#C5E6FF"/>
<circle cx="57.5" cy="106.5" r="13.5" fill="#C5E6FF"/>
<ellipse cx="36" cy="13.5" rx="14" ry="13.5" fill="#C5E6FF"/>
<ellipse cx="111" cy="13.5" rx="13" ry="13.5" fill="#57A8FF"/>
</g>
<defs>
<clipPath id="clip0_2_51">
<rect width="580" height="181" fill="white"/>
</clipPath>
</defs>
</svg>
