<svg width="241" height="71" viewBox="0 0 241 71" fill="none" xmlns="http://www.w3.org/2000/svg">
<g clip-path="url(#clip0_2_36)">
<path d="M14.7838 5L43 29.0303M43 29.0303H7L24.5 44M43 29.0303L24.5 44M24.5 44L12.8378 66" stroke="#307FBA" stroke-width="3"/>
<path d="M45 5V65" stroke="#224E7D" stroke-width="3"/>
<path d="M236.094 0.246796V69.3708H219.134V0.246796H236.094Z" fill="#224E7D" stroke="white" stroke-width="4"/>
<path d="M187.906 -0.473785C193.163 -0.473738 197.901 0.337642 202.082 2.00864H202.083C206.215 3.64774 209.775 5.81127 212.729 8.5184L214.08 9.75668L212.965 11.2108L208.644 16.8407L208.643 16.8397C208.232 17.4021 207.72 17.8684 207.139 18.2459L207.138 18.245C206.301 18.8097 205.317 18.9735 204.418 18.9735C203.699 18.9735 203.008 18.8159 202.357 18.5467L202.08 18.4247L202.038 18.4041L201.996 18.3827C201.449 18.0942 200.86 17.762 200.23 17.3885L200.199 17.37L200.169 17.3504C199.743 17.0769 199.259 16.7833 198.717 16.4696L198.156 16.1493C197.483 15.7704 196.671 15.4125 195.708 15.0838L195.683 15.075L195.66 15.0672C194.746 14.7293 193.638 14.4413 192.321 14.2166L192.297 14.2127L192.272 14.2079C191.054 13.9687 189.588 13.8397 187.857 13.8397C184.983 13.8397 182.393 14.3255 180.065 15.2694L180.054 15.2733C177.763 16.1871 175.801 17.523 174.149 19.287L174.144 19.2928L174.138 19.2977C172.497 21.024 171.193 23.1782 170.252 25.8016L170.25 25.8075C169.32 28.3706 168.834 31.3608 168.834 34.8084C168.834 38.267 169.346 41.2703 170.327 43.8504L170.525 44.3397C171.535 46.7582 172.838 48.767 174.415 50.3973L174.736 50.7206C176.353 52.3087 178.233 53.5452 180.39 54.4334L180.826 54.6004C183.012 55.4104 185.368 55.8221 187.906 55.8221C189.6 55.8221 191.097 55.7354 192.404 55.5682H192.409L192.902 55.5008C194.035 55.3347 195.055 55.0976 195.967 54.7967L195.974 54.7948L195.982 54.7918C196.937 54.4853 197.829 54.1094 198.66 53.6659L199.012 53.4715C199.981 52.9089 200.951 52.2178 201.92 51.3914L201.927 51.3856L202.101 51.244C202.502 50.9282 202.937 50.6618 203.406 50.4579C204.006 50.1672 204.654 50.0125 205.33 50.0125C206.497 50.0126 207.54 50.4277 208.4 51.1678L208.57 51.3202L208.599 51.3475L208.629 51.3768L213.717 56.5565L215.006 57.868L213.805 59.2625C210.781 62.7768 207.054 65.4616 202.655 67.3182L202.656 67.3192C198.251 69.1918 193.043 70.0907 187.09 70.0907C181.723 70.0907 176.825 69.2302 172.426 67.4706L172.422 67.4686C168.361 65.8314 164.822 63.5812 161.828 60.7118L161.236 60.1297C158.313 57.1765 156.033 53.6948 154.39 49.7059L154.07 48.9012L154.065 48.8885C152.436 44.5571 151.633 39.8569 151.633 34.8084C151.634 29.6844 152.505 24.9487 154.279 20.6278C156.041 16.3052 158.527 12.5607 161.739 9.41879L161.747 9.41196L162.362 8.83188C165.267 6.16286 168.632 4.04315 172.441 2.46762L173.264 2.13754C177.715 0.38627 182.604 -0.473785 187.906 -0.473785Z" fill="#224E7D" stroke="white" stroke-width="4"/>
<path d="M125.937 -0.473785C131.194 -0.473738 135.932 0.337642 140.113 2.00864H140.114C144.246 3.64774 147.807 5.81127 150.76 8.5184L152.111 9.75668L150.996 11.2108L146.675 16.8407L146.675 16.8397C146.263 17.4021 145.752 17.8684 145.171 18.2459L145.17 18.245C144.332 18.8097 143.349 18.9735 142.449 18.9735C141.628 18.9735 140.842 18.7675 140.111 18.4247L140.069 18.4041L140.027 18.3827C139.481 18.0942 138.892 17.762 138.261 17.3885L138.23 17.37L138.2 17.3504C137.774 17.0769 137.291 16.7833 136.749 16.4696L136.187 16.1493C135.514 15.7704 134.702 15.4125 133.739 15.0838L133.715 15.075L133.691 15.0672C132.777 14.7293 131.669 14.4413 130.352 14.2166L130.328 14.2127L130.303 14.2079C129.086 13.9687 127.619 13.8397 125.888 13.8397C123.014 13.8397 120.425 14.3255 118.096 15.2694L118.086 15.2733C115.794 16.1871 113.833 17.523 112.18 19.287L112.175 19.2928L112.17 19.2977C110.528 21.024 109.225 23.1782 108.283 25.8016L108.281 25.8075C107.351 28.3706 106.865 31.3608 106.865 34.8084C106.865 38.267 107.377 41.2703 108.358 43.8504L108.556 44.3397C109.567 46.7582 110.869 48.767 112.446 50.3973L112.767 50.7206C114.384 52.3087 116.264 53.5452 118.422 54.4334L118.857 54.6004C121.044 55.4104 123.399 55.8221 125.937 55.8221C127.631 55.8221 129.129 55.7354 130.435 55.5682H130.44L130.933 55.5008C132.066 55.3347 133.086 55.0976 133.999 54.7967L134.006 54.7948L134.013 54.7918C134.968 54.4853 135.86 54.1094 136.691 53.6659L137.044 53.4715C138.012 52.9089 138.982 52.2178 139.951 51.3914L139.959 51.3856L140.133 51.244C140.533 50.9282 140.968 50.6618 141.437 50.4579C142.037 50.1672 142.685 50.0125 143.361 50.0125C144.528 50.0126 145.572 50.4277 146.431 51.1678L146.601 51.3202L146.631 51.3475L146.66 51.3768L151.748 56.5565L153.037 57.868L151.837 59.2625C148.813 62.7768 145.085 65.4616 140.686 67.3182L140.687 67.3192C136.283 69.1918 131.074 70.0907 125.121 70.0907C119.754 70.0907 114.856 69.2302 110.458 67.4706L110.453 67.4686C106.392 65.8314 102.853 63.5812 99.8591 60.7118L99.2673 60.1297C96.1498 56.9796 93.7627 53.2279 92.1013 48.9012L92.0964 48.8885C90.4671 44.5571 89.6647 39.8569 89.6647 34.8084C89.6648 29.6844 90.5364 24.9487 92.3103 20.6278C94.0725 16.3052 96.5583 12.5607 99.7702 9.41879L99.778 9.41196L100.393 8.83188C103.298 6.16286 106.663 4.04315 110.472 2.46762L111.296 2.13754C115.746 0.38627 120.635 -0.473785 125.937 -0.473785Z" fill="#224E7D" stroke="white" stroke-width="4"/>
<path d="M82.2395 0.246796V69.3708H73.6165C72.409 69.3708 71.2601 69.1948 70.2395 68.7595L70.1897 68.739L70.1419 68.7146C69.1831 68.2433 68.3386 67.5249 67.5882 66.657L33.0657 29.3571C31.7274 28.0667 30.747 26.0658 30.5579 23.9675C30.3586 21.7553 31.0378 19.3041 33.2307 17.5036C36.9709 14.433 40.9964 15.744 43.4163 16.8103L44.3499 17.239L44.719 17.4118L44.9905 17.7155L66.8665 42.1706C66.8655 42.0576 66.8636 41.9457 66.8636 41.8347V0.246796H82.2395Z" fill="#224E7D" stroke="white" stroke-width="4"/>
<circle cx="45.5" cy="65.5" r="5.5" fill="#224E7D"/>
<circle cx="14.5" cy="65.5" r="5.5" fill="#307FBA"/>
<circle cx="5.5" cy="29.5" r="5.5" fill="#307FBA"/>
<circle cx="23.5" cy="43.5" r="5.5" fill="#307FBA"/>
<circle cx="14.5" cy="5.5" r="5.5" fill="#307FBA"/>
<circle cx="45.5" cy="5.5" r="5.5" fill="#224E7D"/>
</g>
<defs>
<clipPath id="clip0_2_36">
<rect width="241" height="71" fill="white"/>
</clipPath>
</defs>
</svg>
